<?xml version="1.0" encoding="UTF-8" standalone="no"?>
<svg
	version="1.1"
	width="1000"
	height="1000"
	id="svg3"
	xmlns="http://www.w3.org/2000/svg"
	class="logo-colour"
	xmlns:svg="http://www.w3.org/2000/svg">
<defs
	id="defs3" />
<style
	id="style1" />
<path
	style="fill:currentColor"
	d="m 476.5625,936.85435 c -16.47041,-1.14097 -31.82741,-2.78749 -44.68229,-4.79068 C 269.3381,906.73453 134.74761,791.61927 83.639567,634.2134 62.494717,569.09013 57.193829,497.79983 68.370721,428.8666 94.463674,267.9389 209.53072,134.37422 365.7866,83.639567 430.90987,62.494717 502.20017,57.193829 571.1334,68.370721 732.0611,94.463674 865.62578,209.53072 916.36043,365.7866 c 34.87058,107.39665 25.94569,227.72354 -24.38059,328.70352 -74.5216,149.52801 -228.67879,244.43651 -394.42125,242.82961 -9.13086,-0.0885 -18.5791,-0.29795 -20.99609,-0.46538 z m 22.44894,-5.94615 c -0.007,-1.47705 -3.06775,-28.57806 -6.80255,-60.22446 -4.65806,-39.46947 -7.18439,-57.78881 -8.04464,-58.33466 -0.68975,-0.43765 -3.53872,-0.80246 -6.33103,-0.81069 -6.61096,-0.0195 -25.42133,-2.45464 -38.3801,-4.96864 C 326.39328,784.63614 233.14405,699.553 200.25308,588.31713 c -6.04139,-20.43172 -11.75116,-52.46362 -11.79147,-66.15035 -0.008,-2.79231 -0.37757,-5.64862 -0.82077,-6.34733 -0.56047,-0.88361 -19.13907,-3.42272 -61.0202,-8.33956 l -60.21439,-7.06915 0.004,7.85127 c 0.0052,10.3716 1.646487,32.33532 3.505634,46.91377 22.383821,175.52209 150.280794,320.51501 321.685704,364.68536 31.70674,8.17069 67.63995,13.18558 97.41211,13.59497 l 10.00977,0.13764 z m 30.77372,1.674 C 604.9661,927.06345 674.7423,903.73773 736.32812,863.53626 843.22375,793.75785 914.02894,681.0722 930.08414,555.17578 c 1.84016,-14.42956 3.50033,-36.51255 3.50564,-46.63086 l 0.004,-7.56836 -2.68555,0.012 c -1.47705,0.007 -28.57806,3.06775 -60.22446,6.80255 -39.46947,4.65806 -57.78881,7.18439 -58.33466,8.04464 -0.43765,0.68975 -0.80246,3.53872 -0.81069,6.33103 -0.0195,6.61096 -2.45464,25.42133 -4.96864,38.38009 -21.93361,113.05985 -107.01675,206.30908 -218.25262,239.20005 -20.43172,6.04139 -52.46362,11.75116 -66.15035,11.79147 -2.79231,0.008 -5.64862,0.37757 -6.34733,0.82077 -0.88361,0.56047 -3.42272,19.13907 -8.33956,61.0202 l -7.06915,60.21439 7.85127,-0.004 c 4.3182,-0.002 14.00361,-0.45559 21.52315,-1.00758 z M 484.375,806.10467 c 0,-2.47114 -14.19973,-125.15878 -15.14522,-130.85686 -0.47767,-2.87871 -0.76957,-3.03201 -9.03162,-4.74339 -18.91511,-3.91801 -43.81237,-14.09409 -59.82179,-24.45054 l -6.94978,-4.49579 -44.61369,30.46494 c -24.53752,16.75572 -49.41871,33.77338 -55.29151,37.81704 -5.87281,4.04365 -10.29668,6.71384 -9.83083,5.93375 0.46585,-0.7801 16.29686,-24.05019 35.18002,-51.71132 18.88317,-27.66113 35.11945,-51.51138 36.08063,-53.00055 l 1.7476,-2.70758 -4.38883,-5.5932 C 337.8566,584.34154 324.74459,558.18818 318.90535,536.13191 l -1.68074,-6.34856 -61.2002,-7.11357 c -33.6601,-3.91246 -61.93748,-7.09809 -62.83862,-7.07918 -1.8535,0.0389 -1.78882,1.97547 0.76763,22.98362 7.24543,59.54068 31.44404,114.43123 71.25099,161.62109 8.28264,9.81881 27.40765,28.8293 37.04168,36.81987 48.62783,40.33249 107.11323,64.45364 170.89844,70.48372 4.83399,0.45699 9.33838,0.89028 10.00977,0.96287 0.69179,0.0748 1.2207,-0.94649 1.2207,-2.3571 z m 54.19922,-0.0581 c 59.54068,-7.24543 114.43123,-31.44404 161.62109,-71.25099 9.81881,-8.28264 28.8293,-27.40765 36.81987,-37.04168 36.09408,-43.5177 60.18591,-97.21779 68.12792,-151.85547 1.8053,-12.41971 3.40831,-29.61616 2.81836,-30.23424 -0.23575,-0.247 -28.37034,2.82024 -62.5213,6.81608 -57.85422,6.76925 -62.14544,7.39984 -62.86575,9.23815 -0.4252,1.08514 -2.36079,7.04497 -4.30132,13.24406 -5.93449,18.95799 -17.99101,41.75106 -30.552,57.75914 -2.79408,3.56085 -4.08478,6.01378 -3.59697,6.83594 0.41844,0.70525 16.20842,23.91411 35.08884,51.57524 18.88042,27.66114 35.17047,51.60074 36.20012,53.19913 1.5577,2.41814 0.0682,1.66308 -8.87011,-4.49635 -5.9082,-4.07138 -27.66113,-18.95376 -48.33985,-33.07195 -20.67871,-14.1182 -40.73605,-27.82724 -44.57186,-30.46455 l -6.97422,-4.7951 -6.99159,4.52284 c -15.8299,10.24031 -41.26653,20.64349 -59.86361,24.48327 -8.25785,1.70501 -8.55462,1.86046 -9.04456,4.73771 -0.87966,5.16593 -15.13228,128.43198 -15.13228,130.87397 0,2.24333 0.21085,2.31245 5.61523,1.84085 3.08838,-0.26951 10.88868,-1.13173 17.33399,-1.91605 z M 468.14544,664.79492 c -0.26498,-1.7456 -2.16864,-17.59291 -4.23037,-35.21624 -2.06173,-17.62333 -3.96386,-32.25768 -4.22695,-32.52077 -0.48535,-0.48535 -62.22718,41.35763 -62.22718,42.17191 0,0.93783 11.49435,7.73029 21.38838,12.63922 12.50095,6.20237 21.50216,9.53315 35.74052,13.22531 14.06777,3.64792 14.15449,3.646 13.5556,-0.29943 z m 75.31159,0.79784 c 18.59358,-4.51904 38.62358,-12.84942 53.12192,-22.09317 5.24454,-3.34377 6.02804,-4.18654 4.88282,-5.2522 -3.09221,-2.87735 -60.64211,-41.69726 -61.1148,-41.22457 -0.28239,0.28239 -2.20031,14.93253 -4.26204,32.55586 -2.06173,17.62333 -3.96539,33.47064 -4.23037,35.21624 -0.58336,3.84315 -0.85158,3.8247 11.60247,0.79784 z M 381.55775,572.50752 c 11.93196,-17.53703 21.51653,-32.06345 21.29904,-32.28094 -0.26853,-0.26853 -76.71879,-9.62335 -81.24487,-9.94151 -0.32225,-0.0227 1.78037,7.41736 4.27451,15.12509 3.59457,11.10844 9.39367,23.97611 15.42323,34.22271 5.64258,9.58898 16.63075,24.88961 17.81714,24.80973 0.40507,-0.0273 10.49899,-14.39806 22.43095,-31.93508 z m 271.28107,16.35967 c 7.04766,-10.53281 15.61434,-27.27709 19.46807,-38.05193 2.41409,-6.74969 6.51497,-20.55687 6.09769,-20.53019 -3.75653,0.24011 -80.9814,9.66154 -81.2299,9.91005 -0.33042,0.33041 39.61338,59.38568 42.60725,62.99307 1.1277,1.3588 1.59105,1.15858 4.06111,-1.75493 1.53349,-1.8088 5.58159,-7.46353 8.99578,-12.56607 z M 932.62726,471.67969 C 929.9594,433.0265 923.10472,398.11227 911.15378,362.30469 858.65622,205.01077 719.72958,90.900924 555.17578,69.915856 540.74622,68.075696 518.66323,66.415532 508.54492,66.410222 l -7.56836,-0.004 0.012,2.685547 c 0.007,1.477051 3.06775,28.57806 6.80255,60.224463 4.65806,39.46947 7.18439,57.78881 8.04464,58.33466 0.68975,0.43765 3.53872,0.80246 6.33103,0.81069 6.61096,0.0195 25.42133,2.45464 38.38009,4.96864 113.05985,21.93361 206.30908,107.01675 239.20005,218.25262 6.04139,20.43172 11.75116,52.46362 11.79147,66.15035 0.008,2.79231 0.37846,5.65005 0.82275,6.35053 0.56311,0.88782 18.97238,3.40458 60.77606,8.30877 l 59.96827,7.03518 0.31697,-5.86737 c 0.17433,-3.22705 -0.1835,-13.11834 -0.79518,-21.98064 z m -803.311,20.5292 c 39.46947,-4.65806 57.78881,-7.18439 58.33466,-8.04464 0.43765,-0.68975 0.80246,-3.53872 0.81069,-6.33103 0.0195,-6.61096 2.45464,-25.42133 4.96864,-38.3801 21.93361,-113.05984 107.01675,-206.30907 218.25262,-239.20004 20.43172,-6.04139 52.46362,-11.75116 66.15035,-11.79147 2.79231,-0.008 5.64862,-0.37757 6.34733,-0.82077 0.88361,-0.56047 3.42272,-19.13907 8.33956,-61.0202 l 7.06915,-60.21439 -7.85127,0.004 c -10.3716,0.0052 -32.33532,1.646487 -46.91377,3.505634 C 249.48916,94.826368 94.826368,249.48916 69.915856,444.82422 c -1.84016,14.42956 -3.500324,36.51255 -3.505634,46.63086 l -0.004,7.56836 2.685547,-0.012 c 1.477051,-0.007 28.57806,-3.06775 60.224463,-6.80255 z m 125.30502,-14.69654 c 32.04171,-3.77445 58.32547,-6.96049 58.40835,-7.08008 0.0829,-0.11958 0.68024,-4.1725 1.32747,-9.00649 3.47521,-25.95543 13.62912,-53.28343 28.04104,-75.46904 l 5.25287,-8.08623 -31.53846,-46.11299 c -17.34616,-25.36214 -31.91483,-46.7302 -32.37483,-47.48458 -1.09701,-1.79902 -4.95221,-4.35591 46.46836,30.81925 24.61162,16.83602 45.22153,30.61093 45.79981,30.61093 0.57829,0 3.99429,-2.36564 7.59113,-5.25699 20.38455,-16.38631 47.13532,-29.3886 72.45767,-35.21826 6.17676,-1.422 12.30489,-2.89643 13.61807,-3.2765 l 2.3876,-0.69103 6.11087,-51.75322 c 3.36098,-28.46427 6.13177,-53.14968 6.15732,-54.85648 l 0.0464,-3.10327 -5.61523,0.49 c -12.89194,1.125 -29.79617,3.49207 -40.81845,5.71574 -87.91687,17.73662 -163.63456,73.48021 -208.25928,153.32111 -18.42247,32.96081 -31.31924,72.81301 -35.71142,110.35156 -2.82047,24.1057 -2.81848,22.94922 -0.0397,22.94922 1.33797,0 28.64862,-3.08819 60.69034,-6.86265 z m 553.34135,1.24742 c -6.09319,-69.82491 -29.59116,-127.29728 -73.16704,-178.95508 -8.28264,-9.81881 -27.40765,-28.8293 -37.04168,-36.81987 -43.5177,-36.09408 -97.21779,-60.18591 -151.85547,-68.12792 -12.3955,-1.80178 -29.6157,-3.4087 -30.23153,-2.82108 -0.58228,0.55562 11.9113,107.54469 12.70923,108.83577 0.33509,0.54217 4.74427,1.8387 9.79819,2.88116 27.4583,5.66378 56.67703,19.36891 78.22865,36.69338 3.59684,2.89135 6.99672,5.25699 7.55529,5.25699 0.55858,0 21.12646,-13.75145 45.7064,-30.55878 51.09061,-34.93487 47.71398,-32.6974 46.58882,-30.8714 -0.46484,0.75438 -15.03625,22.11823 -32.38092,47.47524 l -31.53577,46.10364 5.25844,8.09557 c 14.34885,22.09065 24.71657,49.98401 28.05061,75.46754 0.6744,5.15474 1.68331,9.31099 2.26709,9.33941 0.57855,0.0282 26.10073,3.05654 56.71597,6.7297 30.61523,3.67316 57.49998,6.72629 59.74389,6.78472 l 4.07983,0.10624 z M 362.11935,464.93608 c 22.1881,-2.62197 40.53462,-4.95984 40.77003,-5.19525 0.36979,-0.3698 -50.13535,-74.96695 -52.33713,-77.30303 -2.06365,-2.18953 -17.85621,27.06823 -23.72076,43.94581 -3.62289,10.42629 -7.89359,28.3116 -9.00872,37.72772 -0.64457,5.44271 -0.59404,5.61488 1.64479,5.6036 1.27038,-0.006 20.46369,-2.15688 42.65179,-4.77885 z m 320.05788,-0.82475 c -2.05597,-17.36052 -9.04047,-40.64532 -17.20959,-57.37305 -6.02006,-12.32714 -14.41436,-25.46475 -15.53253,-24.30937 -2.11715,2.18759 -52.68909,76.94732 -52.30892,77.32749 0.53957,0.53957 76.81926,9.72339 81.94141,9.86546 l 3.77463,0.1047 z M 465.84316,354.30499 c 3.11882,-26.48396 5.57485,-48.2491 5.45784,-48.36699 -0.49319,-0.49687 -22.21929,4.82088 -29.40647,7.19762 -11.35756,3.75586 -24.12305,9.53563 -34.34163,15.54872 -8.82414,5.19252 -27.68494,18.73749 -27.6544,19.86013 0.0236,0.86636 79.33104,54.8562 79.83694,54.35029 0.24043,-0.24042 2.9889,-22.10582 6.10772,-48.58977 z m 117.04201,20.20673 c 20.45558,-13.96485 37.20097,-25.63837 37.21199,-25.94117 0.0281,-0.77159 -15.8913,-12.6586 -22.83319,-17.04958 -9.12071,-5.76914 -25.59067,-13.64866 -36.32547,-17.37873 -8.442,-2.93339 -31.63552,-8.83466 -32.23193,-8.20098 -0.13613,0.14464 10.00587,87.50675 11.28767,97.23081 0.0696,0.5282 3.18984,-1.55677 42.89093,-28.66035 z"
     id="path3" />
</svg>
